
<svg xmlns="http://www.w3.org/2000/svg" viewBox="0 0 320 320" width="320" height="320">
  <defs>
    <linearGradient id="luminousNavy" x1="0%" y1="0%" x2="100%" y2="100%">
      <stop offset="0%" stop-color="#071329" />
      <stop offset="50%" stop-color="#0A1D44" />
      <stop offset="100%" stop-color="#0F2B66" />
    </linearGradient>

    <linearGradient id="luminousWing" x1="0%" y1="0%" x2="100%" y2="100%">
      <stop offset="0%" stop-color="#07152E" />
      <stop offset="50%" stop-color="#0A2252" />
      <stop offset="100%" stop-color="#0E357F" />
    </linearGradient>
  </defs>

  <g transform="translate(145, 155) scale(0.66)">
    
  <g id="conch-emblem">
    <!-- Outer Left Enclosing Plume / Flame -->
    <path d="M -9,165 
             C -25,120 -58,65 -60,-8 
             C -62,-72 -38,-135 0,-168 
             C -32,-145 -62,-90 -66,-25 
             C -70,45 -48,110 -22,152 
             C -18,158 -13,163 -9,165 Z" 
          fill="url(#primaryNavy)" />

    <!-- Outer Right Embracing Wing -->
    <path d="M 8,-174 
             C 42,-172 90,-130 112,-65 
             C 128,-18 132,45 106,105 
             C 86,150 48,190 -16,215 
             C 5,188 20,165 30,135 
             C 58,58 55,-35 25,-105 
             C 18,-122 8,-150 8,-174 Z" 
          fill="url(#rightWingGrad)" />

    <!-- Central Conch Shell Body -->
    <g id="shankha-body">
      <!-- Top spiral nodule (Crest tip) -->
      <path d="M -18,-106 
               C -18,-128 18,-128 18,-106 
               C 18,-92 -18,-92 -18,-106 Z" 
            fill="url(#primaryNavy)" />

      <!-- Upper Shell Tier / Ridge -->
      <path d="M -30,-88 
               C -30,-106 30,-106 30,-88 
               C 30,-74 -30,-74 -30,-88 Z" 
            fill="url(#primaryNavy)" />

      <!-- Main Conch Teardrop / Body -->
      <path d="M -46,-65 
               C -58,-15 -52,48 -14,125 
               C -10,133 -4,146 -2,155 
               C 2,142 8,128 14,115 
               C 42,50 50,-10 38,-65 
               C 28,-75 -35,-75 -46,-65 Z" 
            fill="url(#primaryNavy)" />

      <!-- Inner Elegant Spiral Highlight -->
      <path d="M -3,-48 
               C -24,-30 -34,0 -24,45 
               C -18,72 -2,102 4,118 
               C -5,98 -16,68 -16,42 
               C -16,5 2,-26 12,-38 
               C 6,-45 0,-47 -3,-48 Z" 
            fill="#FFFFFF" />

      <!-- Conch Lip Detail Ridge -->
      <path d="M 6,-55 
               C 18,-42 22,-20 18,12 
               C 16,26 10,48 2,68 
               C 8,50 14,30 14,15 
               C 14,-15 10,-35 2,-48 Z" 
            fill="#050E20" opacity="0.35" />
    </g>
  </g>

  </g>
</svg>
